<?xml version="1.0" encoding="UTF-8"?>
<svg version="1.1" viewBox="0 0 36 36" xmlns="http://www.w3.org/2000/svg">
	<g transform="matrix(1.6823994,0,0,1.6823994,-4.3555136,-6.9596692)">
		<circle cx="13.287875" cy="14.835757" r="10.699005" fill="#f5f8fa" stop-color="#000000" style="-inkscape-stroke:none;font-variation-settings:normal;paint-order:stroke fill markers"/>
		<circle cx="13.287875" cy="14.835757" r="6" fill="#ffac33"/>
	</g>
	<path d="m10.9375 22.890625-4.359375 0.0625q-0.359375 0-0.359375-0.3125v-2.21875q0-0.25 0.078125-0.296875 0.046875-0.04687 0.28125-0.04687l4.359375 0.0625h5.375v-0.3125q0-1.09375-0.171875-2.375-0.9375 0.578125-3.671875 0.578125-0.671875 0-0.8125-0.125-0.109375-0.125-0.25-0.734375-0.25-1-0.609375-1.796875-1.609375 0.765625-4.03125 1.65625-0.734375 0.25-1.078125 0.515625-0.28125 0.21875-0.453125 0.21875-0.28125 0-0.421875-0.34375-0.5-1.65625-0.765625-2.78125 1.65625-0.29688 2.71875-0.64063 3.09375-1 5.953125-2.4375-0.04687 0.4375-0.04687 1.078125 0 0.359375 0.01563 0.84375 0 0.265625 0 0.34375 0 0.5-0.1875 0.671875-0.140625 0.125-0.734375 0.421875l-0.453135 0.234375q0.609375 0.0625 1.671875 0.0625 0.59375 0 0.796875-0.203125 0.1875-0.203125 0.1875-0.734375v-6.8125h-5.828125l-3.578125 0.0625q-0.28125 0-0.328125-0.0625-0.0625-0.0625-0.0625-0.28125v-2.28125q0-0.265625 0.078125-0.328125 0.0625-0.046875 0.3125-0.046875l3.578125 0.0625h5l3.640625-0.0625q0.265625 0 0.3125 0.078125 0.04687 0.0625 0.04687 0.3125l-0.0625 2.421875v4.40625l0.0625 3.296875q0 1.59375-0.765625 2.25 1.5 0.04687 3.125 0.1875 0.453125 0.04687 0.453125 0.359375 0 0.140625-0.1875 0.59375-0.15625 0.328125-0.15625 1.390625v0.3125h5.40625l4.375-0.0625q0.265625 0 0.3125 0.0625 0.04687 0.0625 0.04687 0.28125v2.21875q0 0.3125-0.359375 0.3125l-4.375-0.0625zm15.859375-11.421875q-0.046875 0.453125-0.046875 1.09375 0 0.359375 0.01563 0.796875 0.01563 0.328125 0.01563 0.421875 0 0.46875-0.1875 0.640625-0.109375 0.109375-0.6875 0.375l-0.765625 0.359375q0.734375 0.0625 1.8125 0.0625 0.671875 0 0.890625-0.21875 0.203125-0.203125 0.203125-0.71875v-6.8125h-5.734385l-3.578125 0.0625q-0.25 0-0.296875-0.0625-0.04687-0.0625-0.04687-0.28125v-2.28125q0-0.265625 0.0625-0.328125 0.04687-0.046875 0.281245-0.046875l3.578125 0.0625h4.90625l3.640625-0.0625q0.28125 0 0.34375 0.078125 0.04687 0.0625 0.04687 0.3125l-0.062495 2.421875v4.40625l0.0625 3.296875q0 1.546875-0.828125 2.25-0.84375 0.734375-3.84375 0.734375-0.6875 0-0.8125-0.109375-0.109375-0.109375-0.25-0.71875-0.359375-1.296875-0.671875-1.953125-2.0625 0.875-3.703125 1.4375-0.765625 0.3125-1.0625 0.515625-0.375 0.25-0.515625 0.25-0.28125 0-0.40625-0.390625-0.296875-0.890625-0.734375-2.75 1.5625-0.3125 2.8125-0.703125 2.75-0.78125 5.5625-2.140625zm-18.359375 19.9375-4.0625 0.0625q-0.265625 0-0.3125-0.0625t-0.046875-0.28125v-2.28125q0-0.25 0.0625-0.296875t0.296875-0.046875l4.0625 0.0625h11.890625q0.796875-1.5625 1.515625-3.484375 0.28125-0.828125 0.40625-1.703125 2.15625 0.390625 3.203125 0.671875 0.421875 0.09375 0.421875 0.390625 0 0.1875-0.296875 0.484375-0.28125 0.25-0.5 0.796875-0.703125 1.703125-1.3125 2.84375h3.796875l4.0625-0.0625q0.265625 0 0.3125 0.0625 0.04687 0.0625 0.04687 0.28125v2.28125q0 0.25-0.0625 0.296875-0.0625 0.04687-0.296875 0.04687l-4.0625-0.0625zm2.140625-7.140625q-0.09375-0.171875-0.09375-0.25 0-0.140625 0.40625-0.265625l2.28125-0.5625q0.140625-0.04687 0.21875-0.04687 0.171875 0 0.359375 0.328125 0.796875 1.59375 1.40625 3.609375 0.0625 0.203125 0.0625 0.28125 0 0.1875-0.421875 0.296875l-2.265625 0.640625q-0.1875 0.0625-0.296875 0.0625-0.21875 0-0.3125-0.375-0.53125-2-1.34375-3.71875zm11.09375-16.3125q1.4375 0.78125 3.375 2.296875 0.171875 0.15625 0.171875 0.21875 0 0.09375-0.25 0.328125l-1.40625 1.40625q-0.25 0.265625-0.375 0.265625-0.03125 0-0.296875-0.1875-1.46875-1.4375-3.296875-2.5-0.140625-0.109375-0.140625-0.203125 0-0.109375 0.25-0.34375l1.234375-1.15625q0.265625-0.234375 0.421875-0.234375 0.109375 0 0.3125 0.109375zm-13.9375-0.03125q1.5625 0.859375 3.28125 2.265625 0.1875 0.140625 0.1875 0.234375t-0.25 0.34375l-1.40625 1.34375q-0.21875 0.234375-0.375 0.234375-0.125 0-0.296875-0.15625-1.6875-1.5625-3.234375-2.40625-0.1875-0.140625-0.1875-0.21875 0-0.09375 0.296875-0.328125l1.3125-1.1875q0.28125-0.21875 0.390625-0.21875 0.09375 0 0.28125 0.09375z" stroke-width=".999999" style="paint-order:stroke fill markers" aria-label="翌"/>
</svg>
